# xmcd
#
# Track frame offsets:
#	150
#	15692
#	32667
#	50505
#	64877
#	79000
#	92057
#	107722
#	132982
#	148577
#	166070
#
# Disc length: 2427 seconds
#
# Revision: 0
# Processed by: cddbd v1.5.1PL0 Copyright (c) Steve Scherf et al.
# Submitted via: dBpowerAMP V4.0
#
DISCID=8d09790b
DTITLE=Various Artist - Noël en Blues
DYEAR=2000
DGENRE=Blues
TTITLE0=Bob Harrisson - Glory Alléluia
TTITLE1=Jim Zeller - Joueux Noël
TTITLE2=Kim Richardson - Trois anges sont venus ce soir
TTITLE3=Breen Leboeuf - C'est Noël
TTITLE4=Lise Bernatchez - Entre le boeuf et l'âne gris
TTITLE5=Rick Weston - Winter Wonderland
TTITLE6=Bob Walsh - Noël blanc
TTITLE7=Little Jo - L'Enfant au tambour
TTITLE8=Carl Tremblay - Sainte nuit
TTITLE9=Bob Harrisson, Bob Walsh - Minuit chrétiens
TTITLE10=tous (sauf KR) - Happy X-Mas (War Is Over)
EXTD=released 14 dec 2000 in Québec\n
EXTT0=
EXTT1=
EXTT2=
EXTT3=
EXTT4=
EXTT5=
EXTT6=
EXTT7=
EXTT8=
EXTT9=
EXTT10=
PLAYORDER=
